PathFileType	4	(X/Y/Z)	C:\Users\Willi\SynologyDrive\Deimel_MSc_Deadlift\Athlete_03\Athlete_3_22_07_06\dl_80\marker_experimental.trc
DataRate	CameraRate	NumFrames	NumMarkers	Units	OrigDataRate	OrigDataStartFrame	OrigNumFrames
200.000000	200.000000	4	59	mm	200.000000	0	3308
Frame#	Time	BL			BR			GLAB			RFHD			LFHD			C7			T6			SPINMOL			SPINM2			SPINM3			T12			BELTOL			BELT2			BELT3			SACROL			SACR2			SACR3			LTHOL			LTH2			LTH3			LSHAOL			LSHA2			LSHA3			LHEE			LTOE			LM5			RTHOL			RTH2			RTH3			RSHAOL			RSHA2			RSHA3			RHEE			RTOE			RM5			STRN			XIPH			LACR			LUAOL			LUA2			LUA3			LLAOL			LLA2			LLA3			LWRU			RACR			RUAOL			RUA2			RUA3			RLAOL			RLA2			RLA3			RWRU			USERMO0			USERMO1			USERMO2			USERMO3			USERMO4			USERMO5			
		X1	Y1	Z1	X2	Y2	Z2	X3	Y3	Z3	X4	Y4	Z4	X5	Y5	Z5	X6	Y6	Z6	X7	Y7	Z7	X8	Y8	Z8	X9	Y9	Z9	X10	Y10	Z10	X11	Y11	Z11	X12	Y12	Z12	X13	Y13	Z13	X14	Y14	Z14	X15	Y15	Z15	X16	Y16	Z16	X17	Y17	Z17	X18	Y18	Z18	X19	Y19	Z19	X20	Y20	Z20	X21	Y21	Z21	X22	Y22	Z22	X23	Y23	Z23	X24	Y24	Z24	X25	Y25	Z25	X26	Y26	Z26	X27	Y27	Z27	X28	Y28	Z28	X29	Y29	Z29	X30	Y30	Z30	X31	Y31	Z31	X32	Y32	Z32	X33	Y33	Z33	X34	Y34	Z34	X35	Y35	Z35	X36	Y36	Z36	X37	Y37	Z37	X38	Y38	Z38	X39	Y39	Z39	X40	Y40	Z40	X41	Y41	Z41	X42	Y42	Z42	X43	Y43	Z43	X44	Y44	Z44	X45	Y45	Z45	X46	Y46	Z46	X47	Y47	Z47	X48	Y48	Z48	X49	Y49	Z49	X50	Y50	Z50	X51	Y51	Z51	X52	Y52	Z52	X53	Y53	Z53	X54	Y54	Z54	X55	Y55	Z55	X56	Y56	Z56	X57	Y57	Z57	X58	Y58	Z58	X59	Y59	Z59	

1	0	126.3162384033203	248.3848724365236	-2314.29150390625	190.6127624511719	251.0052490234375	-91.95352172851561	268.2005004882812	1608.771240234375	-1198.521728515625	208.1763153076172	1619.13525390625	-1122.659912109375	204.9316101074219	1623.054931640625	-1274.424194335938	49.76714706420898	1470.012939453125	-1197.943237304688	7.3849196434021	1265.145874023438	-1205.750122070312	6.000250816345215	1233.999633789062	-1208.920532226562	2.946419477462769	1173.194213867188	-1156.7392578125	11.50566673278809	1172.64404296875	-1205.284301757812	22.30113410949707	1132.676513671875	-1202.742919921875	-0.3370396792888641	1107.870849609375	-1203.884887695312	2.22882342338562	1047.289794921875	-1151.87744140625	-5.769165515899658	1045.9775390625	-1201.333618164062	3.063440084457397	1004.882202148438	-1224.859741210938	13.44788932800293	1015.583129882813	-1176.021362304688	-18.35293579101562	958.1774902343751	-1183.4296875	129.9666595458984	760.4462280273439	-1419.032470703125	82.76195526123047	699.3385009765626	-1398.338500976562	131.0739440917969	698.8431396484376	-1412.530151367188	76.5015869140625	349.2249145507814	-1407.618408203125	33.9792366027832	283.3090209960939	-1398.53564453125	83.07509613037109	287.675018310547	-1405.49072265625	5.750836849212646	66.58409118652352	-1319.823486328125	214.0300598144531	75.26197814941415	-1339.406372070312	163.1254272460938	54.6342315673829	-1441.963745117188	120.6653442382812	733.1827392578126	-1001.571594238281	154.8407287597656	661.8937377929689	-990.793212890625	109.0450820922852	672.2307739257814	-1008.221374511719	46.69808578491211	344.3465881347657	-1012.437866210938	86.75218963623047	276.3082885742188	-1004.456665039062	40.08706665039062	283.6692810058594	-1021.239379882812	10.90860843658447	64.99176025390632	-1114.580200195312	214.5019226074219	70.29096221923835	-1058.743530273438	152.7213897705078	65.51598358154303	-970.1466064453125	201.8281860351562	1393.421508789062	-1210.943725585938	249.1603240966797	1242.50732421875	-1211.348022460938	99.05962371826172	1402.131469726562	-1419.272216796875	111.5712280273438	1248.570190429688	-1486.238037109375	95.05775451660156	1185.168701171875	-1494.956176757812	145.6849670410156	1191.9814453125	-1491.791870117188	207.5523834228516	984.1037597656251	-1504.294067382812	209.3354339599609	918.3789672851564	-1503.98095703125	250.5162353515625	939.9426269531251	-1485.367553710938	261.3250732421875	840.1677856445314	-1487.281372070312	122.166618347168	1400.828735351562	-997.1540527343749	167.3013153076172	1223.7099609375	-946.2890624999999	206.0373992919922	1173.31689453125	-963.4638061523436	174.1624298095703	1160.508666992188	-926.3406982421874	242.9879150390625	980.1658325195312	-922.8637695312499	282.1017150878906	936.2780761718751	-951.4694824218749	253.332275390625	916.5338745117188	-914.5946655273438	270.0751037597656	842.0319213867188	-920.7545166015625	0.007041819859296083	0	0	0.004232080187648535	0.003634959924966097	-0.002527170116081833	0.005298850126564503	0.002567840041592717	-0.002508990000933409	0	0.3548370003700256	-0.2156340032815933	0.06436710059642792	1.491269946098328	-0.1143020018935203	1.583269953727722	0	0	
2	0.005	126.3033752441406	248.3684082031251	-2314.257568359375	190.6114807128906	251.0054626464844	-91.95375061035155	268.2143859863281	1608.774169921875	-1198.514770507812	208.1893768310547	1619.138793945312	-1122.65576171875	204.9452209472656	1623.053344726562	-1274.421020507812	49.78373718261719	1470.010375976562	-1197.93701171875	7.400955200195312	1265.146362304688	-1205.747314453125	6.014130115509033	1233.998657226562	-1208.9189453125	2.962720155715942	1173.19287109375	-1156.73779296875	11.52287864685059	1172.6435546875	-1205.28369140625	22.31120681762695	1132.674072265625	-1202.737182617188	-0.3218547105789185	1107.869018554688	-1203.881958007812	2.244300842285156	1047.2880859375	-1151.873901367188	-5.752614498138428	1045.975830078125	-1201.33154296875	3.043232202529907	1004.897827148438	-1224.83544921875	13.46938419342041	1015.582336425781	-1176.00634765625	-18.35190582275391	958.1856689453126	-1183.424438476562	129.9798431396484	760.4444580078126	-1419.023681640625	82.77772521972656	699.3372802734376	-1398.332641601562	131.0885009765625	698.8422241210939	-1412.5244140625	76.50428771972656	349.2247314453126	-1407.617431640625	33.98049926757812	283.3105468750001	-1398.538452148438	83.07667541503906	287.6745605468751	-1405.489013671875	5.751806735992432	66.58420562744149	-1319.823364257812	214.0310668945312	75.26084136962899	-1339.406982421875	163.1259460449219	54.6350860595704	-1441.963134765625	120.680046081543	733.1814575195314	-1001.572814941406	154.8569946289062	661.8911132812501	-990.7946166992188	109.0597763061523	672.2295532226564	-1008.221862792969	46.70349884033203	344.3470458984376	-1012.438232421875	86.75865936279297	276.3070678710938	-1004.458251953125	40.09255599975586	283.6696166992188	-1021.240356445312	10.91079235076904	64.99095916748054	-1114.580444335938	214.5021362304688	70.29050445556648	-1058.743530273438	152.72216796875	65.51593017578131	-970.1463623046875	201.8367767333984	1393.413452148438	-1210.938110351562	249.1697387695312	1242.499267578125	-1211.346069335938	99.07026672363281	1402.123291015625	-1419.262817382812	111.5697555541992	1248.5615234375	-1486.227416992188	95.05478668212891	1185.15478515625	-1494.930786132812	145.6860809326172	1191.972900390625	-1491.784423828125	207.5476837158203	984.0952148437501	-1504.290771484375	209.3304138183594	918.3712158203126	-1503.97900390625	250.5240631103516	939.9338378906251	-1485.375244140625	261.3200378417969	840.1566772460939	-1487.276245117188	122.1892242431641	1400.803955078125	-997.1699829101561	167.2858734130859	1223.691528320312	-946.2849731445311	206.0270080566406	1173.298706054688	-963.4600219726561	174.14501953125	1160.4873046875	-926.3408813476561	242.9706420898438	980.14453125	-922.8668823242186	282.1306762695312	936.2844238281251	-951.4323120117186	253.3097229003906	916.5093994140625	-914.603271484375	270.0556030273438	842.0094604492188	-920.7686767578125	0.008405869826674461	0	0	0.004726619925349951	0.004222230054438114	-0.003049300052225589	0.005831350106745958	0.003260340075939894	-0.004166279919445515	0.0002916259982157499	0.605184018611908	-0.473809003829956	0.3364590108394623	1.661260008811951	-0.3616729974746703	1.749410033226013	0	0	
3	0.01	126.2897415161133	248.3514099121095	-2314.221923828125	190.6102752685547	251.0056610107422	-91.95414733886717	268.2305603027344	1608.777465820312	-1198.507080078125	208.2050170898438	1619.142578125	-1122.651123046875	204.9610443115234	1623.051635742188	-1274.41748046875	49.80290985107422	1470.007446289062	-1197.930297851562	7.419519424438477	1265.14697265625	-1205.744018554688	6.030182361602783	1233.997680664062	-1208.916625976562	2.981447219848633	1173.191528320312	-1156.73583984375	11.54283142089844	1172.642822265625	-1205.282592773438	22.32204055786133	1132.671508789062	-1202.72998046875	-0.3045136630535126	1107.8671875	-1203.878295898438	2.262048006057739	1047.286254882812	-1151.86962890625	-5.733642101287842	1045.973999023438	-1201.328735351562	3.022857427597046	1004.916320800781	-1224.811889648438	13.49351978302002	1015.581970214844	-1175.98974609375	-18.34990310668945	958.1947631835939	-1183.417724609375	129.9943695068359	760.4425659179689	-1419.014770507812	82.79485321044922	699.3354492187501	-1398.326171875	131.1045074462891	698.8412475585939	-1412.51806640625	76.50724792480469	349.2246093750001	-1407.616455078125	33.98170852661133	283.312469482422	-1398.54150390625	83.07826995849609	287.6740112304689	-1405.487182617188	5.752857685089111	66.58436584472665	-1319.823120117188	214.0322570800781	75.25941467285165	-1339.407592773438	163.1266174316406	54.63584899902352	-1441.962524414062	120.6969680786133	733.1800537109376	-1001.57421875	154.8752593994141	661.8882446289064	-990.7962036132812	109.0765686035156	672.2282714843751	-1008.222534179688	46.7095947265625	344.3474121093751	-1012.438781738281	86.76581573486328	276.3056335449219	-1004.460021972656	40.09872817993164	283.6699218750001	-1021.241638183594	10.91340255737305	64.99000549316413	-1114.580688476562	214.5024108886719	70.2899246215821	-1058.743408203125	152.7232208251953	65.51586151123053	-970.1460571289062	201.8470153808594	1393.404541015625	-1210.932006835938	249.1804504394531	1242.489868164062	-1211.344116210938	99.08260345458984	1402.1142578125	-1419.252075195312	111.5681304931641	1248.55224609375	-1486.215942382812	95.05113983154297	1185.140747070312	-1494.905029296875	145.6871185302734	1191.963623046875	-1491.776000976562	207.542236328125	984.0858764648439	-1504.287231445312	209.3246917724609	918.3628540039064	-1503.9765625	250.5308990478516	939.9241943359376	-1485.382690429688	261.3146667480469	840.1446533203126	-1487.269897460938	122.2138824462891	1400.776611328125	-997.1869506835936	167.2689361572266	1223.6708984375	-946.2803344726561	206.0155944824219	1173.278198242188	-963.4555053710936	174.1253051757812	1160.463134765625	-926.3413085937499	242.9514312744141	980.1201171875	-922.8702392578124	282.1552734375	936.2865600585939	-951.3974609374999	253.2839965820312	916.4814453125	-914.6134033203125	270.0335998535156	841.98388671875	-920.7846069335938	0.009736889973282814	3.51023584072391e-20	-0.0005732650170102715	0.005213430151343346	0.004782049916684628	-0.003533639945089817	0.006325630005449057	0.003943960182368755	-0.005787279922515154	0.00161725003272295	0.8453090190887451	-0.7206900119781494	0.5961419939994812	1.829370021820068	-0.5978760123252868	1.912969946861267	0	0	
4	0.015	126.2759170532227	248.334686279297	-2314.186767578125	190.6092224121094	251.0058898925781	-91.9547653198242	268.2489929199219	1608.781005859375	-1198.498901367188	208.2232971191406	1619.146728515625	-1122.646240234375	204.9789733886719	1623.049926757812	-1274.413452148438	49.82451629638672	1470.004272460938	-1197.923095703125	7.440502643585205	1265.147583007812	-1205.740234375	6.04831075668335	1233.996704101562	-1208.91357421875	3.002462148666382	1173.1904296875	-1156.733276367188	11.5654182434082	1172.64208984375	-1205.281127929688	22.33345031738281	1132.6689453125	-1202.721557617188	-0.2851848602294922	1107.865356445312	-1203.873901367188	2.281906843185425	1047.284545898438	-1151.864379882812	-5.712425231933594	1045.972290039062	-1201.3251953125	3.00353479385376	1004.937255859375	-1224.79052734375	13.51986217498779	1015.582153320313	-1175.97216796875	-18.34659767150879	958.2046508789064	-1183.4091796875	130.0099792480469	760.4405517578126	-1419.006103515625	82.81290435791016	699.3330078125001	-1398.319091796875	131.1215515136719	698.8402709960939	-1412.511596679688	76.51040649414062	349.224578857422	-1407.615234375	33.98280715942383	283.3148498535157	-1398.544799804688	83.07984161376953	287.6734313964845	-1405.485107421875	5.753969669342041	66.58458709716805	-1319.82275390625	214.0336151123047	75.25768280029305	-1339.408447265625	163.1274261474609	54.63647460937509	-1441.962036132812	120.715950012207	733.1784667968751	-1001.575805664062	154.8952484130859	661.8851928710939	-990.798095703125	109.0952987670898	672.2268676757814	-1008.223388671875	46.71628189086914	344.3476257324219	-1012.439575195312	86.7735595703125	276.3039550781251	-1004.4619140625	40.10546875	283.6701354980469	-1021.243286132812	10.91643333435059	64.98891448974616	-1114.5810546875	214.5027770996094	70.28923034667976	-1058.743286132812	152.7245330810547	65.51576995849615	-970.1455688476562	201.8589172363281	1393.394775390625	-1210.92578125	249.1923675537109	1242.4794921875	-1211.34228515625	99.09656524658203	1402.104614257812	-1419.239990234375	111.5664138793945	1248.542602539062	-1486.203491210938	95.04680633544922	1185.127197265625	-1494.880004882812	145.6880187988281	1191.953979492188	-1491.766845703125	207.5361175537109	984.0758666992189	-1504.283569335938	209.3183441162109	918.3540039062501	-1503.973876953125	250.5363159179688	939.9140014648439	-1485.389770507812	261.3091125488281	840.1320190429689	-1487.262084960938	122.2397842407227	1400.7470703125	-997.2041625976561	167.2508392333984	1223.648071289062	-946.2751464843749	206.0034332275391	1173.255493164062	-963.4501953124999	174.1035766601562	1160.436401367188	-926.3421020507811	242.9306182861328	980.0928955078125	-922.8739624023436	282.174072265625	936.2835083007814	-951.3663330078124	253.2554626464844	916.4501953125	-914.625	270.0093688964844	841.9555053710938	-920.8021850585938	0.01099439989775419	1.027870565466568e-19	-0.001678640022873878	0.005674260202795267	0.005298850126564503	-0.003965269774198532	0.006764629855751991	0.00460112001746893	-0.007338299881666899	0.002848590025678277	1.069990038871765	-0.9510579705238341	0.8381389975547791	1.990650057792664	-0.8181579709053038	2.069139957427979	0	0	
